<svg width="90" height="68" viewBox="0 0 90 68" fill="none" xmlns="http://www.w3.org/2000/svg">
<path d="M0.129883 5.7098C0.129883 4.23132 0.717207 2.8134 1.76265 1.76796C2.80809 0.722517 4.22601 0.135193 5.70449 0.135193H83.749C85.2275 0.135193 86.6454 0.722517 87.6908 1.76796C88.7363 2.8134 89.3236 4.23132 89.3236 5.7098C89.3236 7.18828 88.7363 8.6062 87.6908 9.65164C86.6454 10.6971 85.2275 11.2844 83.749 11.2844H5.70449C4.22601 11.2844 2.80809 10.6971 1.76265 9.65164C0.717207 8.6062 0.129883 7.18828 0.129883 5.7098ZM0.129883 33.5828C0.129883 32.1044 0.717207 30.6864 1.76265 29.641C2.80809 28.5955 4.22601 28.0082 5.70449 28.0082H83.749C85.2275 28.0082 86.6454 28.5955 87.6908 29.641C88.7363 30.6864 89.3236 32.1044 89.3236 33.5828C89.3236 35.0613 88.7363 36.4792 87.6908 37.5247C86.6454 38.5701 85.2275 39.1574 83.749 39.1574H5.70449C4.22601 39.1574 2.80809 38.5701 1.76265 37.5247C0.717207 36.4792 0.129883 35.0613 0.129883 33.5828ZM0.129883 61.4559C0.129883 59.9774 0.717207 58.5595 1.76265 57.514C2.80809 56.4686 4.22601 55.8813 5.70449 55.8813H83.749C85.2275 55.8813 86.6454 56.4686 87.6908 57.514C88.7363 58.5595 89.3236 59.9774 89.3236 61.4559C89.3236 62.9343 88.7363 64.3523 87.6908 65.3977C86.6454 66.4432 85.2275 67.0305 83.749 67.0305H5.70449C4.22601 67.0305 2.80809 66.4432 1.76265 65.3977C0.717207 64.3523 0.129883 62.9343 0.129883 61.4559Z" fill="white"/>
</svg>
